<svg id="visual" viewBox="0 0 130 32" width="130" height="32" xmlns="http://www.w3.org/2000/svg" xmlns:xlink="http://www.w3.org/1999/xlink" version="1.1"><rect x="0" y="0" width="130" height="32" fill="#591111"></rect><path d="M106 0L70 0L70 5L108 5L108 9L101 9L101 14L80 14L80 18L95 18L95 23L69 23L69 27L78 27L78 32L0 32L0 27L0 27L0 23L0 23L0 18L0 18L0 14L0 14L0 9L0 9L0 5L0 5L0 0L0 0Z" fill="#3e0000"></path><path d="M73 0L72 0L72 5L49 5L49 9L60 9L60 14L70 14L70 18L51 18L51 23L63 23L63 27L74 27L74 32L0 32L0 27L0 27L0 23L0 23L0 18L0 18L0 14L0 14L0 9L0 9L0 5L0 5L0 0L0 0Z" fill="#9b0012"></path><path d="M20 0L22 0L22 5L28 5L28 9L18 9L18 14L19 14L19 18L41 18L41 23L35 23L35 27L26 27L26 32L0 32L0 27L0 27L0 23L0 23L0 18L0 18L0 14L0 14L0 9L0 9L0 5L0 5L0 0L0 0Z" fill="#ff0000"></path></svg>