<?xml version="1.0" standalone="no"?>
<!DOCTYPE svg PUBLIC "-//W3C//DTD SVG 20010904//EN"
 "http://www.w3.org/TR/2001/REC-SVG-20010904/DTD/svg10.dtd">
<svg version="1.0" xmlns="http://www.w3.org/2000/svg"
 width="155.000000pt" height="24.000000pt" viewBox="0 0 1252.000000 201.000000"
 preserveAspectRatio="xMidYMid meet">

<g transform="translate(0.000000,201.000000) scale(0.100000,-0.100000)"
fill="#ffffff" stroke="none">
<path d="M3802 1974 c-12 -8 -22 -21 -22 -29 0 -12 -73 -15 -462 -17 l-463 -3
-72 -34 c-118 -55 -215 -179 -238 -304 -4 -20 -13 -37 -20 -37 -7 0 -24 -9
-39 -21 -22 -17 -26 -28 -26 -73 0 -55 19 -86 53 -86 11 0 19 -16 27 -55 27
-128 106 -231 224 -288 104 -51 158 -57 549 -57 l359 0 29 -29 c29 -29 39 -61
19 -61 -5 0 -10 -18 -10 -40 0 -22 5 -40 10 -40 6 0 10 -4 10 -10 0 -7 -183
-10 -529 -10 -526 0 -529 0 -534 21 -5 17 -12 20 -44 17 l-38 -3 0 -115 0
-115 37 -3 c29 -2 39 1 48 17 11 21 16 21 496 21 534 0 519 -2 567 62 14 18
30 47 36 63 10 28 11 27 6 -15 -8 -69 -53 -149 -103 -185 l-44 -30 -478 -3
-479 -3 -3 23 c-3 20 -9 23 -43 23 l-40 0 0 -115 0 -115 35 -3 c22 -2 38 2 45
12 10 13 75 16 512 18 l500 3 48 30 c94 58 145 155 167 315 9 61 17 90 25 90
11 0 12 -15 7 -67 -23 -246 -107 -399 -247 -452 -56 -20 -72 -21 -532 -21
-467 0 -475 0 -475 20 0 22 -36 36 -69 25 -20 -6 -21 -14 -21 -120 0 -113 0
-115 24 -121 32 -8 66 3 66 22 0 12 74 14 508 14 l507 0 50 24 c143 66 228
257 242 536 5 117 9 137 25 148 26 19 21 74 -8 86 -15 7 -27 27 -37 66 -33
117 -122 208 -246 251 -64 22 -79 23 -421 26 -195 1 -369 5 -387 8 -38 7 -88
46 -108 86 -20 37 -19 49 3 49 33 0 52 33 52 88 0 45 -3 53 -32 75 l-32 25 27
35 c14 19 46 44 71 56 44 20 58 21 465 21 l419 0 11 -30 c12 -37 51 -54 106
-47 61 9 65 20 65 196 0 86 -4 161 -8 167 -23 35 -102 45 -140 18z m78 -185
c0 -119 -2 -130 -17 -127 -16 3 -18 18 -21 118 -3 124 0 140 23 140 13 0 15
-20 15 -131z m-110 -19 l0 -50 -408 0 c-464 0 -482 -2 -557 -71 -23 -22 -48
-53 -55 -69 -11 -27 -17 -30 -56 -30 -43 0 -44 1 -38 28 17 71 79 158 139 196
66 42 92 45 543 45 l432 1 0 -50z m-990 -310 c0 -19 -7 -20 -125 -20 -118 0
-125 1 -125 20 0 19 7 20 125 20 118 0 125 -1 125 -20z m-41 -122 c20 -57 60
-107 104 -130 41 -22 51 -23 427 -28 372 -5 387 -6 442 -28 82 -33 162 -108
187 -178 29 -77 28 -84 -18 -84 -38 0 -39 1 -51 47 -14 56 -70 116 -127 134
-26 9 -163 14 -433 18 -376 6 -397 7 -441 27 -58 27 -125 87 -149 133 -22 44
-40 108 -32 115 3 3 22 6 43 6 33 0 38 -4 48 -32z m1251 -498 c0 -19 -7 -20
-125 -20 -118 0 -125 1 -125 20 0 19 7 20 125 20 118 0 125 -1 125 -20z
m-1350 -135 c0 -88 -1 -95 -20 -95 -18 0 -20 7 -20 88 0 90 3 102 27 102 10 0
13 -22 13 -95z m1210 43 c-1 -143 -83 -303 -173 -337 -19 -7 -197 -11 -518
-11 l-489 0 0 35 0 35 478 0 c440 0 480 2 517 19 82 37 135 116 157 236 14 74
28 85 28 23z m-152 -38 c-31 -49 -43 -50 -552 -50 l-476 0 0 35 0 35 520 0
c518 0 520 0 508 -20z m-1058 -276 c0 -86 -2 -95 -17 -92 -15 3 -18 17 -21 96
-3 87 -2 92 18 92 19 0 20 -6 20 -96z m1240 -76 c-16 -55 -85 -154 -127 -182
-68 -45 -99 -47 -603 -44 l-475 3 -3 32 -3 32 488 3 488 3 57 27 c76 35 117
68 153 122 17 24 31 43 32 42 1 -1 -2 -18 -7 -38z m-1240 -183 c0 -88 -1 -95
-20 -95 -19 0 -20 7 -20 95 0 88 1 95 20 95 19 0 20 -7 20 -95z"/>
<path d="M792 1767 c-35 -89 -72 -181 -83 -204 -10 -24 -19 -45 -19 -48 0 -5
-295 -748 -310 -780 -5 -11 -41 -101 -80 -200 -39 -99 -75 -189 -80 -200 -20
-46 -100 -252 -100 -259 0 -3 77 -5 172 -4 l172 3 52 130 c122 308 515 1279
518 1283 2 1 35 -78 73 -175 185 -463 367 -924 390 -983 13 -36 29 -74 34 -85
4 -11 22 -54 38 -95 l30 -75 180 -3 c130 -2 181 1 181 9 0 11 -107 280 -542
1372 l-191 477 -186 0 -186 -1 -63 -162z"/>
<path d="M2151 1249 c-40 -24 -55 -58 -47 -103 9 -48 47 -76 103 -76 49 0 87
28 99 74 20 82 -80 151 -155 105z"/>
<path d="M9534 1260 c-37 -14 -59 -50 -59 -97 0 -58 36 -93 96 -93 51 0 75 13
95 52 42 81 -43 171 -132 138z"/>
<path d="M9060 657 l0 -583 75 -3 75 -2 0 585 0 586 -75 0 -75 0 0 -583z"/>
<path d="M4230 1000 l0 -90 -70 0 -70 0 0 -65 0 -65 70 0 70 0 0 -254 c0 -298
6 -332 76 -396 74 -68 214 -84 319 -36 l56 25 -17 38 c-9 21 -18 46 -21 56 -6
21 -7 21 -43 2 -38 -20 -119 -21 -156 -4 -54 26 -59 50 -62 322 l-3 247 121 0
120 0 0 65 0 65 -120 0 -120 0 0 90 0 90 -75 0 -75 0 0 -90z"/>
<path d="M5217 910 c-65 -11 -150 -54 -181 -91 -14 -16 -27 -29 -29 -29 -3 0
-4 26 -3 58 l1 57 -72 3 -73 3 0 -419 0 -419 75 1 75 0 0 228 c0 126 5 250 11
278 23 106 110 178 225 188 l64 5 0 73 c0 83 5 80 -93 64z"/>
<path d="M5752 909 c-165 -32 -294 -167 -320 -334 -50 -315 183 -543 513 -504
78 10 194 61 234 103 27 29 29 24 -38 99 l-25 27 -25 -24 c-92 -88 -285 -99
-398 -23 -51 34 -99 102 -109 155 l-6 32 336 0 c262 0 336 3 337 13 0 6 2 20
4 30 7 38 -17 155 -44 212 -78 164 -267 252 -459 214z m215 -150 c54 -26 107
-88 127 -147 9 -25 16 -49 16 -54 0 -4 -119 -8 -265 -8 -290 0 -275 -4 -253
61 39 115 148 184 272 174 33 -3 79 -14 103 -26z"/>
<path d="M6643 906 c-73 -14 -174 -55 -205 -83 -16 -15 -16 -18 9 -62 14 -25
29 -49 33 -54 3 -4 31 6 61 22 71 38 128 53 209 53 68 0 128 -18 164 -50 28
-25 56 -91 56 -134 0 -36 -2 -38 -32 -38 -209 1 -326 -9 -382 -30 -70 -27
-131 -84 -145 -137 -52 -185 74 -325 293 -325 93 0 173 23 230 67 l46 35 0
-48 0 -47 70 -1 70 -1 0 298 c0 254 -2 304 -17 350 -24 73 -89 140 -166 168
-75 27 -200 35 -294 17z m327 -524 c0 -69 -21 -108 -81 -151 -97 -71 -271 -58
-320 23 -25 41 -24 97 2 130 42 54 82 62 271 58 l128 -3 0 -57z"/>
<path d="M7740 907 c-66 -16 -107 -37 -155 -78 l-35 -31 0 56 0 56 -75 0 -75
0 0 -415 c0 -228 3 -416 8 -416 46 -8 138 -5 144 4 5 7 8 122 7 257 -1 235 0
248 21 298 78 180 342 192 416 19 16 -36 19 -79 22 -312 l4 -270 71 0 72 0 5
265 c3 146 10 274 15 285 23 52 63 99 104 123 40 23 57 27 127 27 71 0 85 -3
122 -28 23 -15 52 -46 64 -70 22 -40 23 -53 26 -319 l3 -277 32 -5 c18 -3 50
-4 72 -3 l40 2 5 250 c3 138 2 276 -2 308 -21 163 -123 262 -293 282 -110 14
-251 -31 -322 -102 l-40 -40 -31 38 c-70 83 -225 125 -352 96z"/>
<path d="M10299 910 c-69 -12 -139 -46 -181 -88 l-38 -36 0 62 0 62 -70 0 -70
0 0 -417 0 -418 73 0 72 0 5 260 c4 222 8 266 23 300 38 85 109 132 211 142
108 10 191 -32 230 -116 19 -43 21 -66 24 -316 l4 -270 56 1 c32 0 65 1 75 2
16 2 17 22 17 261 0 142 -5 282 -10 312 -30 160 -138 252 -308 263 -37 3 -88
1 -113 -4z"/>
<path d="M11260 910 c-214 -45 -341 -218 -328 -448 14 -240 186 -393 443 -394
108 0 204 27 266 75 66 51 68 58 24 110 l-39 46 -45 -32 c-67 -48 -97 -58
-181 -64 -62 -4 -86 -1 -134 17 -92 35 -159 107 -180 193 l-6 27 341 0 342 0
-6 83 c-14 228 -160 378 -380 392 -40 2 -92 0 -117 -5z m202 -148 c75 -33 129
-99 143 -175 l7 -37 -266 0 c-146 0 -266 4 -266 9 0 19 31 94 50 122 71 98
214 134 332 81z"/>
<path d="M12320 909 c-66 -13 -146 -56 -180 -97 l-30 -37 0 68 0 67 -75 0 -74
0 -1 -407 c0 -225 3 -413 8 -420 6 -9 98 -12 145 -4 4 0 7 106 7 234 0 283 7
318 79 388 49 47 104 69 175 69 33 0 35 2 41 44 4 24 4 58 0 75 -7 34 -15 36
-95 20z"/>
<path d="M2130 492 l0 -418 68 2 c37 2 70 3 75 4 4 0 7 187 7 415 l0 415 -75
0 -75 0 0 -418z"/>
<path d="M9500 491 l0 -418 75 0 75 0 0 419 0 418 -75 0 -75 0 0 -419z"/>
</g>
</svg>
